<svg width="378" height="134" viewBox="0 0 378 134" fill="none" xmlns="http://www.w3.org/2000/svg">
<path d="M39.6833 1.47986H24.9859C18.726 1.47986 14.1534 6.08353 14.1534 12.3862V58.5874C14.1534 64.89 18.726 69.4937 24.9859 69.4937H39.6833C60.7495 69.4937 75.4469 55.5183 75.4469 35.4594C75.4469 15.4553 60.7495 1.47986 39.6833 1.47986ZM40.3909 51.4078H32.879V19.5109H40.3909C49.9715 19.5109 56.6669 26.0876 56.6669 35.4594C56.6669 44.886 49.9715 51.4078 40.3909 51.4078Z" fill="#EC6C25"/>
<path d="M138.592 9.6458C138.592 4.05562 134.673 0 129.229 0C123.786 0 119.866 4.05562 119.866 9.6458V41.3235C119.866 47.4617 115.294 52.2298 109.415 52.2298C103.536 52.2298 98.9636 47.4069 98.9636 41.3235V9.6458C98.9636 4.05562 95.0443 0 89.6008 0C84.1573 0 80.238 4.05562 80.238 9.6458V42.2004C80.238 59.1353 92.2681 70.9733 109.415 70.9733C126.616 70.9733 138.592 59.1353 138.592 42.2004V9.6458Z" fill="#EC6C25"/>
<path d="M262.755 53.3259L246.806 35.1852L261.666 17.6474C263.844 15.1264 264.987 12.5505 264.987 10.1939C264.987 4.49407 260.632 0 255.08 0C252.249 0 249.636 1.53456 247.078 4.7681L230.258 27.4028V9.6458C230.258 3.8912 226.502 0 220.895 0C215.288 0 211.532 3.8912 211.532 9.6458V61.2728C211.532 67.0273 215.288 70.9185 220.895 70.9185C226.502 70.9185 230.258 67.0273 230.258 61.2728V43.3513L248.275 66.4793C250.888 69.658 253.12 70.9185 256.005 70.9185C261.557 70.9185 265.586 66.6437 265.586 60.7247C265.64 58.094 264.606 55.4085 262.755 53.3259Z" fill="#EC6C25"/>
<path d="M289.211 9.6458C289.211 3.8912 285.455 0 279.848 0C274.241 0 270.485 3.8912 270.485 9.6458V61.2728C270.485 67.0273 274.241 70.9185 279.848 70.9185C285.455 70.9185 289.211 67.0273 289.211 61.2728V9.6458Z" fill="#EC6C25"/>
<path d="M377.938 10.1939C378.537 4.9874 374.672 1.64425 370.699 1.20581C367.432 0.822169 364.874 1.80867 363.187 4.16531C361.935 5.91909 361.118 8.54976 360.628 12.7698C360.138 17.0994 360.193 20.0041 360.791 21.9223C361.662 24.4982 363.622 26.0328 366.289 26.3616C371.406 26.9645 373.801 22.7992 376.741 14.414C377.394 12.6602 377.83 11.016 377.938 10.1939Z" fill="#C63663"/>
<path d="M164.067 34.9112V61.2728C164.067 67.0273 160.311 70.9185 154.704 70.9185C149.098 70.9185 145.342 67.0273 145.342 61.2728V9.6458C145.342 3.8912 149.098 0 154.704 0C157.426 0 159.876 0.986506 161.345 2.46626C162.761 3.94601 186.331 36.0073 186.331 36.0073V9.6458C186.331 3.8912 190.087 0 195.694 0C201.301 0 205.057 3.8912 205.057 9.6458V61.2728C205.057 67.0273 201.301 70.9185 195.694 70.9185C192.972 70.9185 190.522 69.932 189.053 68.4523C187.637 66.9725 164.067 34.9112 164.067 34.9112Z" fill="#EC6C25"/>
<path d="M314.47 34.9112V61.2728C314.47 67.0273 310.714 70.9185 305.107 70.9185C299.5 70.9185 295.744 67.0273 295.744 61.2728V9.6458C295.744 3.8912 299.5 0 305.107 0C307.829 0 310.278 0.986506 311.748 2.46626C313.163 3.94601 336.733 36.0073 336.733 36.0073V9.6458C336.733 3.8912 340.489 0 346.096 0C351.703 0 355.459 3.8912 355.459 9.6458V61.2728C355.459 67.0273 351.703 70.9185 346.096 70.9185C343.374 70.9185 340.925 69.932 339.455 68.4523C338.04 66.9725 314.47 34.9112 314.47 34.9112Z" fill="#EC6C25"/>
<path d="M365.421 63.9036H363.843C363.516 63.9036 363.298 64.1228 363.298 64.4516V68.2332C363.298 68.562 363.516 68.7813 363.788 68.7813C364.061 68.7813 364.278 68.562 364.278 68.2332V67.0275H364.877L366.02 68.562C366.129 68.7265 366.292 68.7813 366.456 68.7813C366.782 68.7813 366.946 68.562 366.946 68.288C366.946 68.1784 366.891 68.0688 366.782 67.9044L366.075 66.9179L366.292 66.7535C366.673 66.4794 366.891 66.041 366.891 65.5477C366.946 64.5064 366.347 63.9036 365.421 63.9036ZM365.095 66.2602H364.387V64.6708H365.095C365.585 64.6708 365.966 64.9997 365.966 65.4929C365.966 65.9862 365.585 66.2602 365.095 66.2602Z" fill="#EC6C25"/>
<path d="M365.095 61.6564C362.482 61.6564 360.359 63.739 360.359 66.3148C360.359 68.8907 362.482 70.9733 365.095 70.9733C367.708 70.9733 369.83 68.8907 369.83 66.3148C369.83 63.739 367.708 61.6564 365.095 61.6564ZM365.095 70.0964C363.026 70.0964 361.339 68.3975 361.339 66.3148C361.339 64.2322 363.026 62.4784 365.095 62.4784C367.163 62.4784 368.905 64.1774 368.905 66.3148C368.851 68.3975 367.163 70.0964 365.095 70.0964Z" fill="#EC6C25"/>
<path d="M115.837 94.704C119.212 94.704 121.553 92.4022 121.553 89.0591C121.553 85.7159 119.212 83.4141 115.837 83.4141H92.8655C88.7284 83.4141 85.9523 86.264 85.9523 90.4292V125.888C85.9523 130.108 88.7284 132.904 92.8655 132.904H115.837C119.212 132.904 121.553 130.602 121.553 127.259C121.553 123.915 119.212 121.614 115.837 121.614H99.6154V111.968H111.591C114.313 111.968 116.218 110.104 116.218 107.364C116.218 104.679 114.313 102.76 111.591 102.76H99.6154V94.6492H115.837V94.704Z" fill="#CC3663"/>
<path d="M154.922 119.805H139.136V89.3882C139.136 85.1681 136.414 82.373 132.331 82.373C128.249 82.373 125.527 85.2229 125.527 89.3882V125.889C125.527 130.109 128.249 132.904 132.331 132.904H154.922C159.059 132.904 161.889 130.218 161.889 126.327C161.889 122.491 159.004 119.805 154.922 119.805Z" fill="#CC3663"/>
<path d="M172.777 82.373C168.694 82.373 165.973 85.2229 165.973 89.3882V126.985C165.973 131.205 168.694 134 172.777 134C176.86 134 179.581 131.15 179.581 126.985V89.3882C179.581 85.1681 176.86 82.373 172.777 82.373Z" fill="#CC3663"/>
<path d="M225.142 82.373C221.985 82.373 219.862 84.0172 218.501 87.5248L214.799 97.0061L208.158 115.092L201.517 96.9514L197.816 87.5248C196.4 84.0172 194.277 82.373 191.12 82.373C186.602 82.373 183.608 85.1133 183.608 89.169C183.608 90.3747 183.88 91.5804 184.425 92.8957L199.503 126.766C201.681 131.643 203.531 134 208.104 134C212.676 134 214.527 131.643 216.705 126.766L231.783 92.8409C232.327 91.5804 232.599 90.3199 232.599 89.169C232.654 85.0585 229.606 82.373 225.142 82.373Z" fill="#CC3663"/>
<path d="M266.567 94.704C269.941 94.704 272.282 92.4022 272.282 89.0591C272.282 85.7159 269.941 83.4141 266.567 83.4141H243.595C239.458 83.4141 236.682 86.264 236.682 90.4292V125.888C236.682 130.108 239.458 132.904 243.595 132.904H266.567C269.941 132.904 272.282 130.602 272.282 127.259C272.282 123.915 269.941 121.614 266.567 121.614H250.345V111.968H262.321C265.042 111.968 266.948 110.104 266.948 107.364C266.948 104.679 265.042 102.76 262.321 102.76H250.345V94.6492H266.567V94.704Z" fill="#CC3663"/>
<path d="M345.551 103.857L340.107 101.719C337.658 100.788 334.827 99.6916 334.827 96.6773C334.827 94.3755 336.732 92.6217 339.291 92.6217C342.285 92.6217 343.972 94.2659 345.388 96.0745C346.912 97.9927 348.762 99.0888 350.613 99.0888C354.151 99.0888 356.982 96.1841 356.982 92.6217C356.982 91.0323 356.329 89.443 355.131 88.0728C351.702 84.072 347.021 82.373 339.944 82.373C329.057 82.373 321.708 88.3469 321.708 97.1706C321.708 103.364 324.92 107.693 331.507 110.488L339.073 113.612C340.488 114.215 343.7 115.53 343.7 118.709C343.7 120.847 342.23 122.984 339.019 122.984C336.46 122.984 333.956 121.559 332.16 119.093C330.636 116.955 328.676 115.804 326.499 115.804C323.505 115.804 320.293 118.161 320.293 121.998C320.293 123.971 321.11 125.889 322.688 127.807C327.206 133.397 335.48 134 338.801 134C349.906 134 357.418 127.807 357.418 118.545C357.418 111.091 354.315 107.255 345.551 103.857Z" fill="#CC3663"/>
<path d="M295.2 107.474H289.974V92.7858H295.2C299.663 92.7858 302.875 95.855 302.875 100.13C302.875 104.405 299.609 107.474 295.2 107.474ZM307.393 114.818L309.244 113.502C313.381 110.543 315.613 105.775 315.613 100.13C315.613 90.1004 308.482 83.4141 297.867 83.4141H283.17C279.087 83.4141 276.365 86.264 276.365 90.4292V126.93C276.365 131.15 279.087 133.945 283.17 133.945C287.252 133.945 289.974 131.095 289.974 126.93V115.092H291.498L303.637 130.602C304.562 131.862 306.576 133.89 309.516 133.89C313.326 133.89 316.266 130.876 316.266 127.094C316.266 125.34 315.504 123.422 314.252 122.107L307.393 114.818Z" fill="#CC3663"/>
<path d="M56.3946 119.805H52.0398V96.5674H56.3946C63.3622 96.5674 68.2069 101.336 68.2069 108.186C68.2613 115.037 63.3622 119.805 56.3946 119.805ZM55.8502 83.4141H46.2697C46.2153 83.4141 46.2153 83.4141 46.1609 83.4141C46.1064 83.4141 46.1064 83.4141 46.052 83.4141H16.9839C15.4597 83.4141 14.2077 84.6746 14.2077 86.2092C14.2077 87.5245 15.1331 88.6206 16.3307 88.8946H38.2134C39.7376 88.8946 40.9896 90.1552 40.9896 91.6897C40.9896 93.2243 39.7376 94.4848 38.2134 94.4848H9.36303C8.0566 94.704 7.02234 95.8001 7.02234 97.2251C7.02234 98.5404 7.94773 99.6913 9.19973 99.9654H38.2134C39.7376 99.9654 40.9896 101.226 40.9896 102.76C40.9896 104.295 39.7376 105.556 38.2134 105.556H29.0684C27.8164 105.83 26.891 106.926 26.891 108.296C26.891 109.666 27.9253 110.817 29.2317 111.036H38.2134C39.7376 111.036 40.9896 112.297 40.9896 113.831C40.9896 115.366 39.7376 116.626 38.2134 116.626H9.14529C7.89329 116.9 7.02234 117.996 7.02234 119.312C7.02234 120.737 8.11103 121.942 9.52633 122.052H38.2134C39.7376 122.052 40.9896 123.313 40.9896 124.847C40.9896 126.382 39.7376 127.642 38.2134 127.642H27.6531C26.4555 127.971 25.5846 129.012 25.5846 130.328C25.5846 131.862 26.8366 133.123 28.3607 133.123H46.3786H49.1003H55.9591C71.3097 133.123 81.9789 122.929 81.9789 108.351C81.9244 93.6079 71.2008 83.4141 55.8502 83.4141Z" fill="#CC3663"/>
<path d="M21.9916 110.927C23.298 110.707 24.3323 109.556 24.3323 108.186C24.3323 106.871 23.4069 105.72 22.1549 105.446H2.93947C2.8306 105.446 2.6673 105.446 2.55843 105.391C1.14313 105.501 0 106.652 0 108.132C0 109.611 1.19756 110.817 2.6673 110.872C2.77617 110.872 2.88504 110.817 2.99391 110.817H21.9916V110.927Z" fill="#CC3663"/>
<path d="M14.2064 130.164C14.2064 131.698 15.4584 132.959 16.9826 132.959H20.5208C22.045 132.959 23.297 131.698 23.297 130.164C23.297 128.848 22.4261 127.807 21.2285 127.478H16.3294C15.1318 127.752 14.2064 128.848 14.2064 130.164Z" fill="#CC3663"/>
</svg>
