<svg width="250" height="22" viewBox="0 0 250 22" fill="none" xmlns="http://www.w3.org/2000/svg">
<path d="M8.10975 0.611328H3.76493C1.91145 0.611328 0.566406 1.96903 0.566406 3.83995V17.5056C0.566406 19.3765 1.91145 20.7342 3.76493 20.7342H8.10975C14.3219 20.7342 18.6621 16.5958 18.6621 10.6704C18.6621 4.74975 14.3265 0.611328 8.10975 0.611328ZM8.32699 15.3967H6.10374V5.95348H8.32699C11.1511 5.95348 13.1248 7.89438 13.1248 10.6751C13.1248 13.4558 11.1511 15.3967 8.32699 15.3967Z" fill="#EF6A00"/>
<path d="M37.3075 3.03115C37.3075 1.37485 36.1427 0.175781 34.5389 0.175781C32.935 0.175781 31.7702 1.37952 31.7702 3.03115V12.4091C31.7702 14.2193 30.4205 15.6377 28.6919 15.6377C26.9632 15.6377 25.6135 14.2193 25.6135 12.4091V3.03115C25.6135 1.37485 24.4487 0.175781 22.8448 0.175781C21.241 0.175781 20.0762 1.37952 20.0762 3.03115V12.661C20.0762 17.6719 23.6167 21.1711 28.6919 21.1711C33.767 21.1711 37.3075 17.6719 37.3075 12.661V3.03115Z" fill="#EF6A00"/>
<path d="M73.9518 15.9604L69.2418 10.5856L73.6329 5.39272C74.2707 4.64155 74.6081 3.88105 74.6081 3.18587C74.6081 1.49691 73.3232 0.171875 71.6869 0.171875C70.8549 0.171875 70.083 0.633771 69.325 1.5809L64.3655 8.28541V3.03191C64.3655 1.32429 63.2515 0.176538 61.5968 0.176538C59.9421 0.176538 58.8281 1.32429 58.8281 3.03191V18.3119C58.8281 20.0195 59.9421 21.1672 61.5968 21.1672C63.2515 21.1672 64.3655 20.0195 64.3655 18.3119V13.0117L69.6902 19.8469C70.4574 20.7846 71.1184 21.1672 71.9643 21.1672C73.6051 21.1672 74.7976 19.8982 74.7976 18.1532C74.793 17.3694 74.488 16.5716 73.9518 15.9604Z" fill="#EF6A00"/>
<path d="M81.7502 3.03115C81.7502 1.32353 80.6363 0.175781 78.9816 0.175781C77.3268 0.175781 76.2129 1.32353 76.2129 3.03115V18.3111C76.2129 20.0187 77.3268 21.1665 78.9816 21.1665C80.6363 21.1665 81.7502 20.0187 81.7502 18.3111V3.03115Z" fill="#EF6A00"/>
<path d="M107.939 3.19456C108.119 1.65024 106.977 0.665788 105.808 0.530484C104.837 0.413844 104.093 0.712446 103.594 1.40763C103.22 1.93018 102.988 2.714 102.845 3.94573C102.697 5.22411 102.711 6.08259 102.891 6.64713C103.141 7.40297 103.719 7.86953 104.514 7.96284C106.021 8.14014 106.732 6.91307 107.597 4.43562C107.777 3.92707 107.911 3.43717 107.939 3.19456Z" fill="#C63663"/>
<path d="M44.8283 10.5102V18.3158C44.8283 20.0234 43.7144 21.1711 42.0597 21.1711C40.405 21.1711 39.291 20.0234 39.291 18.3158V3.03115C39.291 1.32353 40.405 0.175781 42.0597 0.175781C42.8593 0.175781 43.585 0.474383 44.0148 0.912952C44.4401 1.35152 51.3918 10.8368 51.3918 10.8368V3.03115C51.3918 1.32353 52.5057 0.175781 54.1605 0.175781C55.8152 0.175781 56.9291 1.32353 56.9291 3.03115V18.3111C56.9291 20.0187 55.8152 21.1665 54.1605 21.1665C53.3608 21.1665 52.6351 20.8725 52.2053 20.4293C51.7708 19.9907 44.8283 10.5102 44.8283 10.5102Z" fill="#EF6A00"/>
<path d="M89.2151 10.5102V18.3158C89.2151 20.0234 88.1011 21.1711 86.4464 21.1711C84.7917 21.1711 83.6777 20.0234 83.6777 18.3158V3.03115C83.6777 1.32353 84.7917 0.175781 86.4464 0.175781C87.246 0.175781 87.9717 0.474383 88.4016 0.912952C88.8314 1.35152 95.7785 10.8368 95.7785 10.8368V3.03115C95.7785 1.32353 96.8924 0.175781 98.5472 0.175781C100.202 0.175781 101.316 1.32353 101.316 3.03115V18.3111C101.316 20.0187 100.202 21.1665 98.5472 21.1665C97.7475 21.1665 97.0219 20.8725 96.592 20.4293C96.1575 19.9907 89.2151 10.5102 89.2151 10.5102Z" fill="#EF6A00"/>
<path d="M220.641 15.3921H218.88V5.95348H220.641C223.466 5.95348 225.439 7.89438 225.439 10.6751C225.439 13.4512 223.466 15.3921 220.641 15.3921ZM220.429 0.611328H216.546C214.693 0.611328 213.348 1.96903 213.348 3.83995V17.5056C213.348 19.3765 214.693 20.7342 216.546 20.7342H220.429C226.641 20.7342 230.981 16.5958 230.981 10.6704C230.981 4.74975 226.641 0.611328 220.429 0.611328Z" fill="#C63663"/>
<path d="M200.747 4.43172H202.869C204.671 4.43172 205.975 5.68678 205.975 7.41306C205.975 9.13935 204.667 10.3944 202.869 10.3944H200.747V4.43172ZM210.597 16.3571L207.81 13.3851L208.554 12.8485C210.222 11.6401 211.142 9.71322 211.142 7.41773C211.142 3.3493 208.249 0.615234 203.941 0.615234H197.974C196.319 0.615234 195.205 1.76298 195.205 3.4706V18.3167C195.205 20.0243 196.319 21.172 197.974 21.172C199.628 21.172 200.742 20.0243 200.742 18.3167V13.4971H201.371L206.294 19.805C206.677 20.3089 207.491 21.144 208.679 21.144C210.213 21.144 211.415 19.931 211.415 18.382C211.424 17.6681 211.105 16.8936 210.597 16.3571Z" fill="#C63663"/>
<path d="M120.327 4.43172H122.449C124.251 4.43172 125.555 5.68678 125.555 7.41306C125.555 9.13935 124.247 10.3944 122.449 10.3944H120.327V4.43172ZM130.182 16.3571L127.394 13.3851L128.139 12.8485C129.807 11.6401 130.727 9.71322 130.727 7.41773C130.727 3.3493 127.833 0.615234 123.526 0.615234H117.554C115.899 0.615234 114.785 1.76298 114.785 3.4706V18.3167C114.785 20.0243 115.899 21.172 117.554 21.172C119.209 21.172 120.322 20.0243 120.322 18.3167V13.4971H120.951L125.874 19.805C126.257 20.3089 127.071 21.144 128.259 21.144C129.793 21.144 130.995 19.931 130.995 18.382C131.004 17.6681 130.69 16.8936 130.182 16.3571Z" fill="#C63663"/>
<path d="M144.483 16.1374H137.897V12.2229H142.759C143.864 12.2229 144.636 11.4577 144.636 10.3613C144.636 9.26489 143.864 8.49972 142.759 8.49972H137.897V5.20579H144.483C145.842 5.20579 146.79 4.25866 146.79 2.90563C146.79 1.55259 145.842 0.605469 144.483 0.605469H135.16C133.487 0.605469 132.359 1.75321 132.359 3.4655V17.8776C132.359 19.5853 133.483 20.733 135.16 20.733H144.483C145.842 20.733 146.79 19.7859 146.79 18.4329C146.79 17.0798 145.842 16.1374 144.483 16.1374Z" fill="#C63663"/>
<path d="M176.99 4.55844C177.142 4.09188 177.225 3.62531 177.225 3.17275C177.225 1.39047 176.014 0.191406 174.212 0.191406C172.719 0.191406 171.818 0.877255 171.448 2.29094L170.084 7.38581C169.858 8.19297 169.682 8.82749 169.553 9.42936L168.869 12.6067L168.004 9.47602C167.898 9.08877 167.796 8.78084 167.667 8.37959C167.542 7.99235 167.39 7.52112 167.177 6.82127L166.008 2.87415C165.448 0.993895 164.496 0.191406 162.837 0.191406C161.177 0.191406 160.225 0.993893 159.666 2.87881L158.497 6.82127C158.284 7.52578 158.131 7.99701 158.007 8.38426C157.877 8.78084 157.78 9.08877 157.669 9.47602L156.8 12.6067L156.116 9.42936C155.987 8.83683 155.816 8.21163 155.594 7.41847L155.483 7.02656L154.221 2.2956C153.851 0.877252 152.945 0.191406 151.457 0.191406C149.654 0.191406 148.443 1.39047 148.443 3.17275C148.443 3.62065 148.522 4.09187 148.679 4.5631L153.477 18.686C153.796 19.6051 154.637 21.1541 156.657 21.1541C158.473 21.1541 159.439 20.4589 159.888 18.826L162.841 7.77306L165.8 18.8306C166.243 20.4589 167.209 21.1541 169.026 21.1541C171.046 21.1541 171.887 19.6051 172.21 18.6813L176.99 4.55844Z" fill="#C63663"/>
<path d="M181.465 13.8422L184.076 6.47981L186.688 13.8422H181.465ZM193.311 17.514L187.247 3.00392C186.346 0.890383 185.546 0.171875 184.076 0.171875C182.606 0.171875 181.807 0.885718 180.905 3.00858L174.846 17.5047C174.656 17.9339 174.568 18.3165 174.568 18.6804C174.568 20.0288 175.752 21.1626 177.152 21.1626C178.211 21.1626 178.955 20.626 179.362 19.5669L180.073 17.6214H188.079L188.795 19.5762C189.202 20.64 189.955 21.1579 191.093 21.1579C192.419 21.1579 193.584 19.9962 193.584 18.6758C193.584 18.3539 193.482 17.9153 193.311 17.514Z" fill="#C63663"/>
<path d="M241.76 8.90985L239.541 8.03738C238.538 7.65013 237.401 7.20689 237.401 5.97983C237.401 5.04204 238.182 4.33286 239.217 4.33286C240.428 4.33286 241.122 5.00471 241.69 5.72789C242.305 6.51171 243.058 6.94562 243.803 6.94562C245.226 6.94562 246.386 5.76055 246.386 4.30487C246.386 3.65635 246.127 3.01249 245.633 2.44795C244.251 0.875628 242.36 0.175781 239.495 0.175781C235.076 0.175781 232.109 2.59725 232.109 6.19912C232.109 8.71856 233.407 10.4868 236.079 11.6019L239.153 12.8756C239.717 13.1136 241.034 13.6595 241.034 14.9565C241.034 15.8243 240.442 16.6968 239.125 16.6968C238.08 16.6968 237.068 16.1229 236.352 15.1198C235.732 14.2427 234.937 13.7761 234.045 13.7761C232.83 13.7761 231.521 14.7372 231.521 16.2909C231.521 17.084 231.85 17.8819 232.501 18.6564L232.511 18.6657C234.336 20.9192 237.678 21.1665 239.028 21.1665C243.534 21.1665 246.567 18.647 246.567 14.8912C246.571 11.8632 245.314 10.2955 241.76 8.90985Z" fill="#C63663"/>
<path d="M247.445 19.2046C247.445 19.3026 247.367 19.3819 247.27 19.3819H246.9V20.6883C246.9 20.7956 246.817 20.8843 246.71 20.8843C246.599 20.8843 246.521 20.7956 246.521 20.6883V19.3819H246.151C246.054 19.3819 245.971 19.3073 245.971 19.2046C245.971 19.1067 246.049 19.0273 246.151 19.0273H247.274C247.362 19.0273 247.445 19.102 247.445 19.2046Z" fill="#C63663"/>
<path d="M247.459 20.6315L247.768 19.2084C247.796 19.0731 247.87 19.0078 247.976 19.0078C248.092 19.0078 248.161 19.0685 248.198 19.1851L248.531 20.2022L248.864 19.1851C248.901 19.0685 248.97 19.0078 249.086 19.0078C249.197 19.0078 249.266 19.0731 249.294 19.2084L249.603 20.6315C249.636 20.7714 249.553 20.8787 249.423 20.8787C249.326 20.8787 249.257 20.8087 249.234 20.7014L249.039 19.7776L248.734 20.7108C248.702 20.8181 248.633 20.8741 248.531 20.8741C248.434 20.8741 248.365 20.8181 248.328 20.7108L248.023 19.7776L247.828 20.7014C247.805 20.8087 247.741 20.8787 247.644 20.8787C247.5 20.8787 247.426 20.7668 247.459 20.6315Z" fill="#C63663"/>
</svg>