<svg width="140" height="27" viewBox="0 0 140 27" fill="none" xmlns="http://www.w3.org/2000/svg">
<path d="M10.2636 0.5625H4.63994C2.24092 0.5625 0.5 2.30343 0.5 4.70245V22.2255C0.5 24.6245 2.24092 26.3654 4.63994 26.3654H10.2636C18.3042 26.3654 23.9219 21.0589 23.9219 13.461C23.9278 5.86906 18.3102 0.5625 10.2636 0.5625ZM10.5448 19.5153H7.66713V7.41257H10.5448C14.2001 7.41257 16.7547 9.90132 16.7547 13.4669C16.7547 17.0326 14.2001 19.5153 10.5448 19.5153Z" fill="#EF6A00"/>
<path d="M48.0617 3.6672C48.0617 1.54338 46.5541 0.00585938 44.4781 0.00585938C42.4021 0.00585938 40.8945 1.54937 40.8945 3.6672V15.6922C40.8945 18.0135 39.1476 19.8322 36.9101 19.8322C34.6786 19.8322 32.9257 18.0135 32.9257 15.6922V3.6672C32.9257 1.54338 31.4181 0.00585938 29.3421 0.00585938C27.2662 0.00585938 25.7585 1.54937 25.7585 3.6672V16.0153C25.7585 22.4406 30.3412 26.9275 36.9101 26.9275C43.473 26.9275 48.0617 22.4406 48.0617 16.0153V3.6672Z" fill="#EF6A00"/>
<path d="M95.4857 20.2451L89.3894 13.3531L95.0729 6.69452C95.8985 5.73132 96.3352 4.75616 96.3352 3.86475C96.3352 1.69906 94.6721 0 92.5543 0C91.4774 0 90.4782 0.592275 89.4971 1.80674L83.0778 10.4037V3.66733C83.0778 1.4777 81.636 0.00598159 79.4942 0.00598159C77.3524 0.00598159 75.9106 1.4777 75.9106 3.66733V23.2603C75.9106 25.4499 77.3524 26.9217 79.4942 26.9217C81.636 26.9217 83.0778 25.4499 83.0778 23.2603V16.4701L89.9697 25.2346C90.9628 26.4371 91.8184 26.9276 92.9132 26.9276C95.037 26.9276 96.5805 25.3004 96.5805 23.0629C96.5745 22.0518 96.1796 21.0288 95.4857 20.2451Z" fill="#EF6A00"/>
<path d="M105.578 3.6672C105.578 1.47758 104.136 0.00585938 101.995 0.00585938C99.8529 0.00585938 98.4111 1.47758 98.4111 3.6672V23.2602C98.4111 25.4498 99.8529 26.9215 101.995 26.9215C104.136 26.9215 105.578 25.4498 105.578 23.2602V3.6672Z" fill="#EF6A00"/>
<path d="M139.475 3.87684C139.709 1.8966 138.231 0.63427 136.718 0.460775C135.461 0.31121 134.498 0.694097 133.852 1.5855C133.367 2.25555 133.068 3.26063 132.883 4.84003C132.691 6.47926 132.709 7.58006 132.942 8.30395C133.266 9.27313 134.013 9.87139 135.042 9.99104C136.993 10.2184 137.914 8.64496 139.033 5.46821C139.266 4.8161 139.44 4.18793 139.475 3.87684Z" fill="#C63663"/>
<path d="M57.7892 13.2573V23.2662C57.7892 25.4558 56.3474 26.9275 54.2057 26.9275C52.0639 26.9275 50.6221 25.4558 50.6221 23.2662V3.6672C50.6221 1.47758 52.0639 0.00585938 54.2057 0.00585938C55.2407 0.00585938 56.1799 0.388744 56.7363 0.951108C57.2867 1.51347 66.2845 13.6761 66.2845 13.6761V3.6672C66.2845 1.47758 67.7263 0.00585938 69.8681 0.00585938C72.0099 0.00585938 73.4517 1.47758 73.4517 3.6672V23.2602C73.4517 25.4498 72.0099 26.9215 69.8681 26.9215C68.8331 26.9215 67.8938 26.5446 67.3374 25.9763C66.7751 25.4139 57.7892 13.2573 57.7892 13.2573Z" fill="#EF6A00"/>
<path d="M115.24 13.2573V23.2662C115.24 25.4558 113.798 26.9275 111.657 26.9275C109.515 26.9275 108.073 25.4558 108.073 23.2662V3.6672C108.073 1.47758 109.515 0.00585938 111.657 0.00585938C112.692 0.00585938 113.631 0.388744 114.187 0.951108C114.738 1.51347 123.735 13.6761 123.735 13.6761V3.6672C123.735 1.47758 125.177 0.00585938 127.319 0.00585938C129.461 0.00585938 130.903 1.47758 130.903 3.6672V23.2602C130.903 25.4498 129.461 26.9215 127.319 26.9215C126.284 26.9215 125.345 26.5446 124.788 25.9763C124.232 25.4079 115.24 13.2573 115.24 13.2573Z" fill="#EF6A00"/>
<path d="M134.696 24.2534H134.097C133.978 24.2534 133.9 24.3312 133.9 24.4508V25.8807C133.9 26.0003 133.978 26.0781 134.091 26.0781C134.205 26.0781 134.283 25.9943 134.283 25.8807V25.414H134.522L134.953 25.9944C134.989 26.0482 135.048 26.0781 135.108 26.0781C135.228 26.0781 135.3 26.0063 135.3 25.8867C135.3 25.8388 135.282 25.8029 135.228 25.7311L134.959 25.3602L135.043 25.3004C135.186 25.1987 135.264 25.0312 135.264 24.8337C135.276 24.4927 135.037 24.2534 134.696 24.2534ZM134.558 25.1388H134.277V24.5286H134.558C134.749 24.5286 134.887 24.6542 134.887 24.8337C134.887 25.0132 134.755 25.1388 134.558 25.1388Z" fill="#EF6A00"/>
<path d="M134.558 23.4097C133.559 23.4097 132.745 24.1994 132.745 25.1686C132.745 26.1377 133.559 26.9274 134.558 26.9274C135.557 26.9274 136.371 26.1377 136.371 25.1686C136.371 24.1994 135.557 23.4097 134.558 23.4097ZM134.558 26.6104C133.762 26.6104 133.11 25.9642 133.11 25.1686C133.11 24.3729 133.756 23.7208 134.558 23.7208C135.354 23.7208 136.006 24.3669 136.006 25.1686C136.006 25.9642 135.36 26.6104 134.558 26.6104Z" fill="#EF6A00"/>
</svg>