<svg id="Layer_1" data-name="Layer 1" xmlns="http://www.w3.org/2000/svg" viewBox="0 0 54.22 80.53"><defs><style>.cls-1{fill:#f5731b;}.cls-2{fill:#ed1f9a;}.cls-3{fill:#552c05;}.cls-4{fill:#fff;}</style></defs><path class="cls-1" d="M200.07,381.74a7.78,7.78,0,0,1-5.07-2.08,6.91,6.91,0,0,0-.21,1.71v5.49c.74-1.62,2.49-3.31,5.28-5.12" transform="translate(-194.67 -355.54)"/><path class="cls-1" d="M205,408.05c-2.25-.3-3.69-1.21-4.3-2.72L195.08,391a3,3,0,0,1-.26-.46v37.79a6.81,6.81,0,0,0,6.79,6.79h17.82a8.72,8.72,0,0,1-1.56-2.17L205,408.05" transform="translate(-194.67 -355.54)"/><path class="cls-2" d="M242.1,374.57H232l0,0a3.39,3.39,0,0,1,.43.79,2.7,2.7,0,0,1,.19.68c4.87,12.34,5.56,14.07,5.66,14.34h0l0,0a0,0,0,0,1,0,0,3.64,3.64,0,0,1,.26,1.35,5.82,5.82,0,0,1-1.5,3.56c1.21,3.79,3.47,11.33,7.46,26.09l.22.79s0,0,0,0c1.57,5.07-.77,9.84-6.12,12.95h3.46a6.81,6.81,0,0,0,6.79-6.79v-47a6.8,6.8,0,0,0-6.79-6.79" transform="translate(-194.67 -355.54)"/><path class="cls-3" d="M221.19,375.2h0a62.55,62.55,0,0,0-18.29,7.27c-4.45,2.58-6.75,5-6.33,6.54a.69.69,0,0,1,0,.13,1.69,1.69,0,0,0,.12.48,2,2,0,0,0,.19.34,1,1,0,0,1,.09.18l5.7,14.43c.34.85,1.42,1.36,3.21,1.5a.89.89,0,0,1,.71.47L219.73,432c2.52,5,9.72,4.83,15.34,2.56,6.32-2.54,9.22-6.95,7.74-11.78l-.22-.8c-4.23-15.58-6.5-23.09-7.66-26.64a.9.9,0,0,1,.19-.86c1.2-1.33,1.65-2.44,1.31-3.29l-5.69-14.44a.78.78,0,0,1-.05-.18,2.32,2.32,0,0,0-.1-.4,2,2,0,0,0-.24-.42.5.5,0,0,1-.08-.12c-.77-1.42-4.08-1.58-9.08-.42" transform="translate(-194.67 -355.54)"/><path class="cls-3" d="M209.89,357.28h0a7.29,7.29,0,0,0-2.92,5c-.42,2.91,1.23,4.85,2.69,6.55,1.58,1.87,3,3.48,2.1,6.24a1,1,0,0,0,.07.78,1,1,0,0,0,.61.51,1,1,0,0,0,1.28-.68c1.18-3.85-.86-6.25-2.51-8.17s-2.49-3-2.22-4.93a5.29,5.29,0,0,1,2.12-3.66,7.19,7.19,0,0,1,4.5-1.32,3.88,3.88,0,0,1,3.31,3,4.21,4.21,0,0,1,.1,1.54,4.12,4.12,0,0,1-1.52,2.72l-.05,0c-1,.53-1.84.53-2.38,0a1.54,1.54,0,0,1-.37-1.67c.2-.39.71-.53,1.44-.4a1,1,0,0,0,.77-.17,1,1,0,0,0,.42-.66,1,1,0,0,0-.84-1.19,3.2,3.2,0,0,0-3.61,1.49,3.58,3.58,0,0,0,.76,4.07c1.21,1.18,3,1.3,4.88.29l.13-.08a6.2,6.2,0,0,0,2.27-6.45,6,6,0,0,0-5-4.5,9.13,9.13,0,0,0-6.05,1.69" transform="translate(-194.67 -355.54)"/><path class="cls-3" d="M198,368.38a7.17,7.17,0,0,0-3.25,4.92,5.78,5.78,0,0,0,1,3.95,5.63,5.63,0,0,0,8,1.31l.05,0c1.69-1.27,1.63-3.87.53-5.41a3.06,3.06,0,0,0-4.49-.65,1,1,0,0,0-.29,1.42,1,1,0,0,0,.65.43,1,1,0,0,0,.78-.16c1-.64,1.42-.23,1.69.14a2.5,2.5,0,0,1,.39,1.64,1.41,1.41,0,0,1-.47.92c-2.24,1.45-4.22.65-5.19-.76-1.1-1.61-1-4.1,1.76-6s4.69-.71,5.62.14c1.76,1.61,2.45,4.42,1.49,6.14a1,1,0,0,0,.39,1.39,1,1,0,0,0,1.39-.39c1.44-2.57.61-6.36-1.89-8.65-2.32-2.12-5.38-2.23-8.17-.31" transform="translate(-194.67 -355.54)"/><path class="cls-4" d="M226.68,379.19a59.27,59.27,0,0,0-25,10.08,7,7,0,0,1-3.43-.24c.31-1.15,4.86-5.33,14.27-9.06S228,376,229,376.68a7.09,7.09,0,0,1-2.33,2.51" transform="translate(-194.67 -355.54)"/><path class="cls-4" d="M240.94,423.21c1.25,4.07-1.86,7.46-6.58,9.36-5,2-11,2.08-12.81-1.62-.64-1.27-8.89-16.41-12.92-24.93a51.6,51.6,0,0,0,12.85-3.35,52.56,52.56,0,0,0,11.63-6.36c2.93,9,7.41,25.55,7.83,26.9" transform="translate(-194.67 -355.54)"/><path class="cls-4" d="M220.77,400.71c-8.66,3.45-15.24,3.7-16.26,2.88l-4.78-11.9c4.45.31,11.41-1.8,16-3.61s11.07-5,14.09-8.33l4.77,11.9c-.17,1.31-5.13,5.62-13.79,9.06" transform="translate(-194.67 -355.54)"/><path class="cls-1" d="M222.14,413.84c-.23.31-.44.41-1.38.68l-1.3-3,.22-.07a2.9,2.9,0,0,1,1-.14h.16a1.8,1.8,0,0,1,1.46,1.09,1.56,1.56,0,0,1-.15,1.47m2-3.75h0a4.42,4.42,0,0,0-1.72-1.15,5.42,5.42,0,0,0-3.5,0c-.59.16-1.17.31-1.76.44-.85.19-1.26.59-1.21,1.21,0,.19.05.25.34.92.66,1.44,1.3,2.89,2,4.34a3.92,3.92,0,0,0,.43.83,1.57,1.57,0,0,0,.89.59,2,2,0,0,0,1.25,0l1.14-.29a6.26,6.26,0,0,0,1.34-.48,3.63,3.63,0,0,0,1.5-1.6,4.3,4.3,0,0,0,.15-3.41,4.16,4.16,0,0,0-.81-1.32" transform="translate(-194.67 -355.54)"/><path class="cls-2" d="M230,410.64c-.23.38-.42.53-1.29,1-.38-1-.75-2.07-1.13-3.11l.22-.1a2.72,2.72,0,0,1,.92-.32.3.3,0,0,1,.13,0,1.34,1.34,0,0,1,1.31,1,2.05,2.05,0,0,1-.16,1.62m1.92-4.4h0a3.05,3.05,0,0,0-1.53-1,4.43,4.43,0,0,0-3.21.5c-.54.28-1.09.53-1.64.77a1.64,1.64,0,0,0-1.16,1.52,3,3,0,0,0,.29.95c.56,1.47,1.13,2.94,1.69,4.42a3.44,3.44,0,0,0,.38.84,1.2,1.2,0,0,0,.82.5,1.78,1.78,0,0,0,1.16-.25c.36-.17.72-.33,1.06-.51a6.85,6.85,0,0,0,1.25-.74,5.18,5.18,0,0,0,1.42-2,5.75,5.75,0,0,0,.19-3.74,4.25,4.25,0,0,0-.72-1.31" transform="translate(-194.67 -355.54)"/></svg>