<?xml version="1.0" encoding="UTF-8"?>
<svg width="19px" height="23px" viewBox="0 0 19 23" version="1.1" xmlns="http://www.w3.org/2000/svg" xmlns:xlink="http://www.w3.org/1999/xlink">
    <title>2F9DC84C-438F-4C2C-9E10-7821488079D5@1x</title>
    <g id="Buttons" stroke="none" stroke-width="1" fill="none" fill-rule="evenodd">
        <g id="Buttons-/-SSO-/-Apple" transform="translate(-39.000000, -11.000000)" fill="#000000" fill-rule="nonzero">
            <g id="Group" transform="translate(39.000000, 11.000000)">
                <path d="M9.77482408,5.30769231 C10.8295543,5.30769231 12.1665364,4.6058487 12.9538702,3.67005722 C13.6669273,2.82199619 14.1720094,1.63763509 14.1720094,0.453273999 C14.1720094,0.292434838 14.157154,0.131595677 14.1274433,0 C12.9687256,0.0438652257 11.5426114,0.77495232 10.6958561,1.75460903 C10.0422205,2.50031786 9.41829554,3.67005722 9.41829554,4.86904005 C9.41829554,5.04450095 9.44800625,5.21996186 9.46286161,5.27844882 C9.53713839,5.29307057 9.65598124,5.30769231 9.77482408,5.30769231 Z M6.0758405,23 C7.51681001,23 8.1555903,22.0495868 9.95308835,22.0495868 C11.7654418,22.0495868 12.1813917,22.9707565 13.7709148,22.9707565 C15.3604378,22.9707565 16.4151681,21.5378258 17.4104769,20.1341386 C18.5097733,18.525747 18.9851446,16.9465989 19,16.8734901 C18.9108679,16.8442467 15.8803753,15.6306421 15.8803753,12.2237762 C15.8803753,9.27018436 18.2572322,7.93960585 18.3909304,7.83725366 C16.8311181,5.61474889 14.4394058,5.55626192 13.7709148,5.55626192 C12.0031274,5.55626192 10.5770133,6.60902734 9.65598124,6.60902734 C8.69038311,6.60902734 7.39796716,5.61474889 5.86786552,5.61474889 C2.95621579,5.61474889 0,7.98347107 0,12.4577241 C0,15.2358551 1.09929633,18.1748252 2.4511337,20.0756516 C3.59499609,21.6840432 4.62001564,23 6.0758405,23 Z" id=""></path>
            </g>
        </g>
    </g>
</svg>