<svg width="28" height="28" viewBox="0 0 28 28" fill="none" xmlns="http://www.w3.org/2000/svg">
<path fill-rule="evenodd" clip-rule="evenodd" d="M4.10064 23.899C6.74573 26.5436 10.3016 28.0167 13.9995 27.9997C17.6977 28.0168 21.254 26.5438 23.8994 23.899C26.5202 21.3041 28 17.732 28 14.0001C28 10.2682 26.5202 6.69602 23.8994 4.10113C18.3814 -1.36704 9.61864 -1.36704 4.10064 4.10113C1.47977 6.69602 0 10.2682 0 14.0001C0 17.732 1.47977 21.3041 4.10064 23.899ZM9.9796 13.9405V10.8885H11.6888V8.91133C11.6759 8.07305 11.9231 7.2522 12.3949 6.56678C13.1054 5.67662 14.1962 5.198 15.3161 5.28501L17.979 5.29611V8.26034H16.0469C15.8326 8.24796 15.6239 8.33347 15.4771 8.49382C15.3303 8.65417 15.2605 8.87287 15.2865 9.09098V10.8885H18.0253L17.7107 13.9405H15.2865V22.586H11.6878V13.9405H9.9796Z" fill="#3E342F"/>
</svg>