<svg width="28" height="28" viewBox="0 0 28 28" fill="none" xmlns="http://www.w3.org/2000/svg">
<path fill-rule="evenodd" clip-rule="evenodd" d="M14.0012 27.9997C10.3015 28.0165 6.74437 26.5432 4.10108 23.8994C1.47951 21.3016 0 17.7302 0 13.9996C0 10.2691 1.47951 6.69758 4.10108 4.09978C9.61525 -1.36659 18.3852 -1.36659 23.8993 4.09978C26.5207 6.69771 28 10.2691 28 13.9996C28 17.7301 26.5207 21.3015 23.8993 23.8994C21.2566 26.5429 17.7003 28.0161 14.0012 27.9997ZM9.26169 6.60365C7.65458 6.58835 6.33892 7.90516 6.32144 9.54648V18.8848C6.34155 20.5244 7.65628 21.8385 9.26169 21.8237H18.6C20.207 21.839 21.5231 20.5231 21.5421 18.8819V9.54648C21.5241 7.90462 20.2076 6.5878 18.6 6.60365H9.26169ZM19.7805 10.9352V8.35557H19.4442L17.2007 8.36443L17.2093 10.9441L19.7805 10.9352ZM16.6109 14.2137C16.5929 15.7078 15.3948 16.9054 13.9318 16.8918C12.4686 16.906 11.2702 15.708 11.2527 14.2137C11.2531 13.6509 11.4308 13.1033 11.7596 12.6517C12.2683 11.9473 13.0743 11.5315 13.9313 11.5315C14.7883 11.5315 15.5944 11.9473 16.103 12.6517C16.4321 13.1032 16.6101 13.6508 16.6109 14.2137ZM13.9308 18.376C16.2042 18.3973 18.0656 16.5354 18.0921 14.2137C18.0917 13.6774 17.9872 13.1465 17.7847 12.6517H20.0542V18.8828C20.0446 19.6963 19.3926 20.3486 18.5961 20.3415H9.26073C8.46423 20.3486 7.81218 19.6963 7.80265 18.8828V12.6517H10.0741C9.87269 13.1468 9.76888 13.6776 9.7686 14.2137C9.79507 16.5358 11.6571 18.3978 13.9308 18.376Z" fill="#3E342F"/>
</svg>