<svg width="28" height="28" viewBox="0 0 28 28" fill="none" xmlns="http://www.w3.org/2000/svg">
<path d="M14.0005 0.000951011C6.35671 -0.0887521 0.0888214 6.17872 0 14.0005C0.0336053 19.6056 3.33253 24.6494 8.38353 26.8182C8.3231 25.7404 8.40505 24.6591 8.62714 23.6037C8.8964 22.4663 10.4281 15.9757 10.4281 15.9757C10.124 15.279 9.97127 14.5232 9.98034 13.7603C9.98034 11.6863 11.1826 10.137 12.6808 10.137C13.2157 10.1216 13.7309 10.3442 14.0931 10.7473C14.4554 11.1503 14.6292 11.6942 14.5696 12.2383C14.5696 13.5191 13.7529 15.4327 13.3328 17.207C13.1711 17.8822 13.3335 18.5959 13.77 19.1285C14.2066 19.6612 14.8651 19.9491 15.5431 19.9037C18.1962 19.9037 19.9814 16.4964 19.9814 12.4604C19.9814 9.39219 17.9102 7.0951 14.1563 7.0951C12.3609 7.00073 10.6063 7.66492 9.30306 8.93227C7.99985 10.1996 7.26235 11.9589 7.26309 13.7987C7.21985 14.8031 7.54966 15.7871 8.18627 16.553C8.41484 16.7388 8.49533 17.0572 8.38353 17.3331C8.31646 17.5905 8.16161 18.2112 8.09849 18.4564C8.07118 18.6117 7.97325 18.7444 7.83477 18.8138C7.69629 18.8831 7.53381 18.8808 7.39723 18.8077C5.4414 18.0093 4.53006 15.8667 4.53006 13.4585C4.53006 9.48202 7.88348 4.71323 14.5361 4.71323C19.8808 4.71323 23.3989 8.58175 23.3989 12.7329C23.3989 18.2243 20.3414 22.327 15.8449 22.327C14.4914 22.3662 13.2085 21.7097 12.4273 20.5779C12.4273 20.5779 11.6146 23.8076 11.4411 24.4263C11.1153 25.49 10.641 26.5 10.0326 27.4248C11.3223 27.8063 12.6581 27.9996 14.0005 27.9991C21.6433 28.0877 27.9101 21.8213 28 14.0005C27.9112 6.17912 21.6439 -0.0881903 14.0005 0.000951011Z" fill="#3E342F"/>
</svg>
