<svg width="28" height="28" viewBox="0 0 28 28" fill="none" xmlns="http://www.w3.org/2000/svg">
<path d="M14 28C21.732 28 28 21.732 28 14C28 6.26801 21.732 0 14 0C6.26801 0 0 6.26801 0 14C0 21.732 6.26801 28 14 28Z" fill="#3E342F"/>
<path d="M13.1417 11.998V11.2378C12.8874 11.2033 12.6289 11.1813 12.3647 11.1813C9.18581 11.1813 6.60001 13.7676 6.60001 16.9461C6.60001 18.8963 7.57441 20.6225 9.06121 21.6659C8.10174 20.636 7.53241 19.2561 7.53241 17.7408C7.53194 14.6085 10.0258 12.0708 13.1417 11.998Z" fill="white"/>
<path d="M13.2776 20.3906C14.6958 20.3906 15.8694 19.2463 15.9222 17.8407L15.9343 5.30649L18.2074 5.30742L18.2037 5.28875C18.1561 5.03069 18.13 4.76562 18.13 4.49402H14.9982L14.993 17.046C14.9403 18.4516 13.7834 19.5795 12.3652 19.5795C11.9242 19.5795 11.5094 19.4694 11.144 19.2771C11.6223 19.9402 12.3993 20.3906 13.2776 20.3906Z" fill="white"/>
<path d="M22.4872 9.58627V8.8508C21.6122 8.8508 20.7974 8.59087 20.1142 8.1452C20.7227 8.84427 21.5492 9.3856 22.4872 9.58627Z" fill="white"/>
<path d="M18.1295 16.9466V10.5817C19.3577 11.4632 20.8627 11.9831 22.4867 11.9831V9.54896C21.5487 9.34829 20.7223 8.84429 20.1137 8.14569C19.1323 7.50589 18.424 6.48202 18.2032 5.28876H15.91L15.9053 17.8407C15.8526 19.2463 14.6958 20.3742 13.2776 20.3742C12.3993 20.3742 11.6218 19.9402 11.1435 19.2771C10.3054 18.8361 9.73182 17.9578 9.73182 16.947C9.73182 15.4952 10.913 14.3141 12.3648 14.3141C12.6359 14.3141 12.8958 14.3589 13.1417 14.4359V11.9803C10.0258 12.0531 7.51282 14.6086 7.51282 17.7418C7.51282 19.257 8.10128 20.637 9.06075 21.6669C9.99688 22.3244 11.136 22.7118 12.3643 22.7118C15.5437 22.7118 18.1295 20.1255 18.1295 16.9466Z" fill="white"/>
</svg>
