<svg width="28" height="28" viewBox="0 0 28 28" fill="none" xmlns="http://www.w3.org/2000/svg">
<path fill-rule="evenodd" clip-rule="evenodd" d="M4.10091 23.899C6.74617 26.5436 10.3023 28.0167 14.0004 27.9997C17.6986 28.0169 21.2548 26.5438 23.9 23.899C26.5205 21.3038 28 17.7318 28 14C28 10.2683 26.5205 6.69623 23.9 4.10105C18.3819 -1.36702 9.61895 -1.36702 4.10091 4.10105C1.47987 6.69595 0 10.2681 0 14C0 17.7319 1.47987 21.3041 4.10091 23.899ZM11.0297 21.6685C9.1175 21.6708 7.24332 21.122 5.62179 20.085C5.90123 20.121 6.18246 20.1405 6.46409 20.1435C8.04815 20.1501 9.58938 19.6175 10.8452 18.6296C9.34968 18.6129 8.02793 17.6303 7.55001 16.1801C8.07881 16.2807 8.62285 16.2601 9.14289 16.1195C7.51462 15.8045 6.3299 14.3574 6.3122 12.6617V12.6163C6.80289 12.8865 7.34815 13.0364 7.90508 13.0543C6.92911 12.4109 6.33807 11.3054 6.33489 10.1173C6.33485 9.49256 6.50016 8.87943 6.81324 8.34304C8.62924 10.5589 11.2673 11.8977 14.0902 12.036C14.0294 11.7714 13.999 11.5004 13.9994 11.2286C14.0217 9.25671 15.6005 7.67591 17.5275 7.69609C18.4973 7.69416 19.4265 8.09475 20.1027 8.8063C20.8918 8.65231 21.6497 8.36295 22.3446 7.95043C22.0777 8.77344 21.5254 9.46787 20.7921 9.90237C21.491 9.81948 22.1742 9.63212 22.82 9.34626C22.3446 10.0581 21.7483 10.6768 21.0594 11.173C21.0693 11.3335 21.0693 11.4829 21.0693 11.6303C21.0437 14.1335 20.1238 16.5405 18.4832 18.3974C16.5838 20.548 13.8615 21.7428 11.0297 21.6685Z" fill="#3E342F"/>
</svg>
